<?xml version="1.0" encoding="UTF-8"?>
<svg id="Layer_1" xmlns="http://www.w3.org/2000/svg" version="1.1" viewBox="0 0 500 500">
  <!-- Generator: Adobe Illustrator 29.5.1, SVG Export Plug-In . SVG Version: 2.1.0 Build 141)  -->
  <defs>
    <style>
      .st0 {
        fill-rule: evenodd;
      }
    </style>
  </defs>
  <path class="st0" d="M263.64,151.82v45.39c19.33-29.46,52.74-46.57,87.94-45.04,92.41,0,112.38,57.77,112.38,132.92v153.01h-85.59v-135.65c0-32.36-6.53-73.98-56.91-73.98s-57.21,35.22-57.21,71.57v138.06h-85.32V151.82h84.73-.03ZM121.62,79.88c-.02,17.33-10.44,32.97-26.42,39.66-15.99,6.65-34.41,2.97-46.62-9.31-16.75-16.82-16.7-44.03.12-60.78,8.01-7.97,18.83-12.47,30.13-12.53,23.65.01,42.81,19.2,42.79,42.85,0,.04,0,.07,0,.11Z"/>
  <path d="M121.62,152.17H36.04v285.94h85.59V152.17Z"/>
</svg>