<?xml version="1.0" encoding="UTF-8"?>
<svg id="Layer_3" xmlns="http://www.w3.org/2000/svg" version="1.1" viewBox="0 0 1000 500">
  <!-- Generator: Adobe Illustrator 29.5.1, SVG Export Plug-In . SVG Version: 2.1.0 Build 141)  -->
  <defs>
    <style>
      .st0 {
        fill: none;
        stroke: #f1f1f1;
        stroke-linecap: round;
        stroke-linejoin: round;
        stroke-width: 10px;
      }
    </style>
  </defs>
  <g>
    <path class="st0" d="M189.46,236.4c-35.46-2.41-95.17,30.59-115.64,34.48-6.81,1.3-27.49,5.23-31.42-1.9-7.32-13.28,47.86-57.01,86.76-81,0,0,34.31-21.15,82.65-26.32,3.23-.34,9.65-.44,16.61,2.47,10.29,4.3,16.3,15.57,17.5,26.66,1.2,11.09-1.55,22.18-4.28,33-6.1,24.15-12.2,48.29-18.3,72.44-4.73,18.74-9.48,37.52-16.13,55.67-5.98,16.31-13.52,32.13-23.61,46.26-9.4,13.16-20.97,24.77-34.1,34.22-9.63,6.92-21.2,12.9-32.88,10.82-13.36-2.37-23.08-15.21-25.31-28.59-2.23-13.39,1.68-27.07,7.15-39.49,5.94-13.49,13.71-26.09,21.92-38.33,13.79-20.54,28.88-40.21,45.16-58.84,15.04-17.21,31.27-33.68,50.54-45.97,49.49-31.56,112.08-19.43,140.89-11.63"/>
    <path class="st0" d="M290.94,168.38c-5.23-1.22-11.02.26-15.02,3.85s-6.1,9.19-5.44,14.52c.21,1.67.84,3.53,2.4,4.18.86.36,1.83.27,2.76.13,7.54-1.11,14.66-4.95,19.71-10.66,1.01-1.14,3.55-4.15,2.89-5.89-.68-1.82-2.01-.9-3.18.4-1.8,2-2.91,6.63-1.37,9.03,2.68,4.21,9.77,3.09,13.44,1.21,3.85-1.97,6.85-5.22,9.77-8.41,2.43-2.65,4.84-5.32,7.26-7.97,1.1-1.2,2.28-2.32,3.43-3.47.96-.96,1.9-1.93,2.78-2.96-5.54,10.21-8.14,20.7-9.08,32.26-.22,2.75-.39,5.5-.55,8.25-1.92,33.43-3.85,66.87-5.77,100.3-.67,11.62-.95,24.48,6.53,33.39"/>
    <path class="st0" d="M354.99,178.49c-3.48-5.05-11.28-6.43-16.29-2.89-1.28.9-2.4,2.13-2.79,3.64-.63,2.47.93,5.11,3.15,6.37s4.91,1.36,7.43,1.05c12.34-1.52,21.73-11.83,27.97-22.58,12.45-21.45,17.18-47.87,18.75-72.38.2-3.12,1.1-8.38-.52-11.21-1.54-2.7-3.47-1.09-4.19,1.28-10.94,36.14-17.67,73.43-21.74,110.94-2.75,25.33-4.48,50.76-6.15,76.18-.97,14.73-1.91,29.64.74,44.16"/>
    <path class="st0" d="M379.57,192.22c.12.82.48,2.98,2.26,4.72,2.15,2.11,4.94,2.18,6.77,2.23.77.02,3.82.04,6.99-1.81,1.37-.8,3.05-1.78,4.01-3.85.91-1.95.66-3.78.58-4.37-.5-3.42-3.18-6.19-6.15-7.34-3.14-1.22-5.99-.37-7.33.03-1.22.36-3.01.89-4.61,2.52-3.16,3.21-2.56,7.6-2.52,7.87Z"/>
    <path class="st0" d="M412.43,181.54c2.07,6.56,4.13,13.13,6.2,19.69,1.56-12.78,8.29-24.86,18.34-32.9,4.94-3.96,13.58-6.23,16.54-.63,1,1.88.94,4.12.81,6.24-2.66,44.94-24.61,87.94-21.58,132.85.84,12.4,4.69,26.19,15.66,32.03,12.85,6.84,28.67-.64,39.91-9.9,12.06-9.92,22.28-22.06,30.02-35.62,2.57-4.5,4.92-9.83,3.14-14.69-1.97-5.4-8.1-7.86-13.62-9.49-38.72-11.47-79.58-13.01-119.94-14.47-23.76-.86-47.67-1.72-71.22,1.54-29.13,4.03-57.02,14.26-84.13,25.65-13.1,5.5-27.8,13.37-30.23,27.38-.73,4.23.1,9.17,3.58,11.68,1.66,1.2,3.73,1.7,5.76,1.98,9.02,1.27,18.12-1.18,26.85-3.82,40.01-12.13,78.51-28.77,118.11-42.18,59.86-20.27,124.68-33.09,186.17-18.49,4.7,1.11,9.46,2.43,13.42,5.2,7.15,5,10.51,13.95,11.57,22.6,1.56,12.72-1.09,25.92-7.42,37.06"/>
  </g>
  <g>
    <path class="st0" d="M672.91,154.81c-43.57,20.47-90.3,39.04-138.3,35.45-4.48-.33-9.35-1.06-12.39-4.37-3.26-3.55-3.32-9.19-1.36-13.6,1.95-4.41,5.55-7.85,9.14-11.07,22.06-19.72,47.56-35.57,75.01-46.62,12.99-5.23,26.54-9.41,40.5-10.61,7.46-.64,15.28-.35,21.98,3.02,9.98,5.01,15.7,16.09,17.43,27.12s.13,22.27-.91,33.38c-4.17,44.26.53,89.05-4.44,133.23-2.09,18.6-5.89,37.01-11.34,54.92-5.23,17.2-12.09,34.14-22.75,48.63s-25.41,26.44-42.73,31.28c-3.09.86-6.37,1.5-9.49.77-5.98-1.4-9.73-7.31-11.98-13.02-7.97-20.18-5.18-43,.42-63.96,13.59-50.8,42.98-96.66,80.55-133.46,10.21-10,21.21-19.5,34.11-25.65,13.14-6.27,27.72-8.82,42.19-10.36,31.23-3.32,62.93-2.18,93.85,3.37"/>
    <path class="st0" d="M715.89,158.64c-5.62,3.02-10.11,8.07-12.43,14.01-.27.7-.52,1.43-.47,2.18.07.92.58,1.74,1.08,2.52.96,1.5,1.94,3.03,3.28,4.21s3.11,1.99,4.88,1.79c2.78-.32,4.76-3.04,5.3-5.79s0-5.57-.25-8.36c-.31-3.49-.16-7.01.43-10.46,4.27,4.48,7.99,9.49,11.02,14.89"/>
    <path class="st0" d="M745.08,156.11c.68,9.4,2.24,18.74,4.65,27.85.76,2.89,2.23,6.29,5.2,6.57,6.68-16.68,11.61-34.06,14.68-51.76-3.13,25.47-2.95,51.22-3.74,76.87-1.91,62.37-9.61,124.55-22.95,185.51"/>
    <path class="st0" d="M798.68,86.02c-6.38,75.89-9.36,152.07-8.92,228.23"/>
    <path class="st0" d="M811.06,162.32c-2.76,2.11-4.22,5.56-4.83,8.98-.33,1.86-.41,3.93.64,5.5.4.59.93,1.08,1.51,1.5,1.55,1.13,3.46,1.82,5.39,1.75s3.84-.94,5.01-2.47c1.43-1.86,1.62-4.35,1.76-6.69.07-1.12.13-2.26-.13-3.36-.68-2.87-3.43-4.77-6.18-5.84"/>
    <path class="st0" d="M832.82,159.69c.08,8.15.15,16.3.23,24.45,4.77-10.05,12.07-18.89,21.04-25.48,2.67,10.49,1.59,21.52.49,32.29-1.65,16.12-3.3,32.23-4.95,48.35-2.39,23.29-4.78,46.72-3.1,70.07.74,10.24,2.31,20.6,6.73,29.86.84,1.76,1.92,3.59,3.73,4.3,1.29.5,2.74.34,4.11.07,11.18-2.24,20.18-11.01,25.43-21.14,5.25-10.12,7.3-21.56,9.09-32.82,1.61-10.12,3.07-20.33,2.58-30.57-.29-6.08-1.29-12.21-3.94-17.69-2.62-5.42-6.77-9.99-11.43-13.81-6.35-5.19-13.74-9.11-21.6-11.44-9.29-2.75-19.06-3.29-28.74-3.81-12.38-.66-24.83-1.32-37.16.02-11.56,1.26-22.84,4.27-34.08,7.27-21.19,5.66-42.67,11.44-61.63,22.47-10.39,6.05-19.84,13.57-29.24,21.06-8.43,6.72-17.61,14.88-17.81,25.66,13.58-1.6,26.74-5.88,39.3-11.29,20.62-8.88,39.77-20.8,59.63-31.27,32.35-17.06,67.29-30.47,103.76-33.23,36.47-2.76,74.75,5.98,103.02,29.18"/>
  </g>
</svg>